# xmcd CD database file
#
# Track frame offsets:
#	150
#	15550
#	30303
#	44679
#	57131
#	71143
#	83887
#	96916
#	109751
#	122689
#	137602
#	150969
#	164594
#	177627
#	190437
#	202680
#	216554
#	237950
#	259036
#
# Disc length: 3657 seconds
#
# Revision: 0
# Processed by: cddbd v1.5.2PL0 Copyright (c) Steve Scherf et al.
# Submitted via: CDex 1.70beta2
#
DISCID=0b0e4713
DTITLE=Big Bill Broonzy - Big Bill Broonzy
DYEAR=1900
DGENRE=Blues
TTITLE0=Friendless Blues - Broonzy
TTITLE1=Southern Flood Blues - Broonzy
TTITLE2=Rising Sun Shine On - Melrose
TTITLE3=Good Liquor Gonna Carry Me Down - Broonzy
TTITLE4=Worrying You Out of My Mind (Part1) - Broonzy
TTITLE5=Long Tall Mama - Broonzy
TTITLE6=Too Too Train Blues - Broonzy
TTITLE7=W.P.A. Blues - Broonzy
TTITLE8=How You Want It Done - Broonzy
TTITLE9=Good Jelly - Broonzy
TTITLE10=Big Bill Blues - Broonzy
TTITLE11=Come Home Early - Broonzy
TTITLE12=Bull Cow Blues - Broonzy
TTITLE13=It's Your Time Now - Broonzy
TTITLE14=Mississipi River Blues - Broonzy
TTITLE15=Horny Frog - Broonzy
TTITLE16=Fellin' Lowdown - Broonzy
TTITLE17=I Got Up One Mornin' Blues - Broonzy
TTITLE18=In The Evenin' - Broonzy
EXTD=
EXTT0=
EXTT1=
EXTT2=
EXTT3=
EXTT4=
EXTT5=
EXTT6=
EXTT7=
EXTT8=
EXTT9=
EXTT10=
EXTT11=
EXTT12=
EXTT13=
EXTT14=
EXTT15=
EXTT16=
EXTT17=
EXTT18=
PLAYORDER=
